# xmcd
#
# Track frame offsets:
#	150
#	13991
#	33573
#	50623
#	67050
#	81606
#	99201
#	112966
#	132418
#	149468
#	165674
#	180132
#
# Disc length: 2634 seconds
#
# Revision: 1
# Processed by: cddbd v1.5.2PL0 Copyright (c) Steve Scherf et al.
# Submitted via: audiograbber 1.83.01
#
DISCID=a60a480c
DTITLE=Collin Raye - CB20116 Chartbuster (CB)
DYEAR=1900
DGENRE=
TTITLE0=Vocal Track 
TTITLE1=Vocal Track 
TTITLE2=Vocal Track 
TTITLE3=Vocal Track 
TTITLE4=Vocal Track 
TTITLE5=Vocal Track 
TTITLE6=My Kind of Girl (CB)
TTITLE7=One Boy, One Girl (CB)
TTITLE8=I Can Still Feel You (CB)
TTITLE9=I Think About You (CB)
TTITLE10=That's My Story (CB)
TTITLE11=Love Remains (CB)
EXTD=
EXTT0=
EXTT1=
EXTT2=
EXTT3=
EXTT4=
EXTT5=
EXTT6=
EXTT7=
EXTT8=
EXTT9=
EXTT10=
EXTT11=
PLAYORDER=
